<svg width="21" height="20" fill="none" xmlns="http://www.w3.org/2000/svg"><g clip-path="url(#a)"><path d="M10.496 20c5.523 0 10-4.477 10-10s-4.477-10-10-10-10 4.477-10 10 4.477 10 10 10Z" fill="#FCFCFC"/><path d="M4.627 9.275 3.54 7.303l1.087-1.94 1.087 1.94-1.087 1.972ZM2.453 9.275 1.366 7.303l1.087-1.94 1.087 1.94-1.087 1.972ZM4.627 14.638 3.54 12.666l1.087-1.941 1.087 1.94-1.087 1.973ZM2.453 14.638l-1.087-1.972 1.087-1.941 1.087 1.94-1.087 1.973ZM5.714 1.941l-.308-.55c-.552.328-1.07.706-1.547 1.13l.768 1.392 1.087-1.972ZM4.627 16.087l-.776 1.385c.477.424.994.803 1.546 1.131l.317-.575-1.087-1.941Z" fill="#A2001D"/><path d="M6.583 12.609v6.596a10.003 10.003 0 0 0 13.291-5.727l-13.29-.87Z" fill="#6DA544"/><path d="M19.874 13.478A9.977 9.977 0 0 0 20.496 10c0-5.523-4.477-10-10-10a9.969 9.969 0 0 0-3.913.795v12.683h13.291Z" fill="#A2001D"/></g><defs><clipPath id="a"><path fill="#fff" transform="translate(.496)" d="M0 0h20v20H0z"/></clipPath></defs></svg>