<svg width="21" height="20" fill="none" xmlns="http://www.w3.org/2000/svg"><g clip-path="url(#a)"><path d="M10.496 20c5.523 0 10-4.477 10-10s-4.477-10-10-10-10 4.477-10 10 4.477 10 10 10Z" fill="#338AF3"/><path d="M16.148 10.109H4.844c0 .78.68 1.413 1.46 1.413h-.047c0 .78.633 1.413 1.413 1.413 0 .78.633 1.413 1.413 1.413h2.826c.78 0 1.413-.633 1.413-1.413.78 0 1.413-.633 1.413-1.413h-.047c.78 0 1.46-.633 1.46-1.413Z" fill="#FFDA44"/><path d="M14.41 8.26a3.913 3.913 0 0 1-7.827 0" fill="#338AF3"/><path d="m13.485 8.26-1.221.575.65 1.183-1.326-.254-.168 1.34-.924-.985-.924.985-.168-1.34-1.326.254.65-1.183-1.22-.574 1.22-.575-.65-1.182 1.326.253.168-1.34.924.986.924-.985.168 1.34 1.326-.254-.65 1.182 1.221.575Z" fill="#FFDA44"/></g><defs><clipPath id="a"><path fill="#fff" transform="translate(.496)" d="M0 0h20v20H0z"/></clipPath></defs></svg>