<svg width="21" height="20" fill="none" xmlns="http://www.w3.org/2000/svg"><g clip-path="url(#a)"><path d="M10.496 20c5.523 0 10-4.477 10-10s-4.477-10-10-10-10 4.477-10 10 4.477 10 10 10Z" fill="#D80027"/><path d="m10.087 8.171.82 1.131 1.329-.43L11.414 10l.82 1.13-1.328-.432-.822 1.13.001-1.397-1.328-.433 1.329-.43V8.17Z" fill="#F0F0F0"/><path d="M7.847 12.826a2.826 2.826 0 1 1 1.345-5.312 3.478 3.478 0 1 0 0 4.973c-.4.216-.858.34-1.345.34Z" fill="#F0F0F0"/></g><defs><clipPath id="a"><path fill="#fff" transform="translate(.496)" d="M0 0h20v20H0z"/></clipPath></defs></svg>