<svg width="600" height="624" fill="none" xmlns="http://www.w3.org/2000/svg"><circle cx="304.975" cy="312.836" r="277.114" fill="#E3EEFD"/><path d="M298.075 10.04a1.128 1.128 0 0 0 0 1.946l15.431 8.986c.743.433 1.672-.108 1.672-.973V2.026c0-.865-.929-1.406-1.672-.973l-15.431 8.986Z" fill="#6FD6BD"/><path d="M608.739 285.473C595.177 132.951 469.332 12.721 314.428 8.004v6.969c151.056 4.707 273.784 121.828 287.317 270.5h6.994Z" fill="url(#a)"/><path d="M313.621 613.025a1.129 1.129 0 0 1 0 1.946l-15.432 8.986c-.743.433-1.671-.108-1.671-.973v-17.973c0-.865.928-1.406 1.671-.973l15.432 8.987Z" fill="#3E8BF3"/><path d="M0 312.836c0-8.545.351-17.007 1.04-25.373h6.99a301.942 301.942 0 0 0-1.065 25.373c0 163.091 131.011 295.583 293.532 297.977v6.966C134.129 615.384 0 479.774 0 312.836Z" fill="url(#b)"/><defs><linearGradient id="a" x1="328.856" y1="7.861" x2="549.254" y2="276.517" gradientUnits="userSpaceOnUse"><stop stop-color="#6FD6BD"/><stop offset="1" stop-color="#6FD6BD" stop-opacity="0"/></linearGradient><linearGradient id="b" x1="305.97" y1="633.731" x2="-68.159" y2="433.731" gradientUnits="userSpaceOnUse"><stop stop-color="#3E8BF3"/><stop offset="1" stop-color="#3E8BF3" stop-opacity="0"/></linearGradient></defs></svg>