<svg width="15" height="15" fill="none" xmlns="http://www.w3.org/2000/svg"><path d="M14.191 9.3A6.978 6.978 0 1 1 .65 5.922 6.978 6.978 0 0 1 14.19 9.3Z" fill="#F7931A"/><path fill-rule="evenodd" clip-rule="evenodd" d="M10.497 6.617c.14-.928-.568-1.428-1.535-1.76l.314-1.259-.766-.19-.305 1.224c-.201-.05-.408-.097-.614-.144L7.9 3.255l-.765-.19-.314 1.257c-.167-.038-.33-.076-.49-.115l.002-.004-1.057-.264-.203.818s.568.13.556.138c.31.078.366.283.357.446l-.358 1.433c.022.005.05.013.08.025l-.026-.006a5.59 5.59 0 0 0-.055-.014l-.5 2.008c-.039.094-.135.236-.352.182.008.011-.556-.139-.556-.139l-.38.877.996.248.33.085.216.056-.317 1.272.765.191.314-1.259c.209.057.412.11.61.159l-.313 1.253.766.19.317-1.27c1.306.248 2.288.148 2.701-1.033.333-.951-.016-1.5-.703-1.857.5-.116.877-.445.977-1.125Zm-1.75 2.454c-.216.872-1.582.512-2.207.347l-.15-.04.421-1.685.189.044c.646.145 1.97.442 1.748 1.334ZM7.13 6.954c.521.14 1.658.443 1.856-.35.202-.812-.903-1.056-1.442-1.175a6.632 6.632 0 0 1-.158-.037l-.381 1.53c.036.008.078.02.125.032Z" fill="#fff"/></svg>